<svg class="svg-icon" style="width: 2em; height: 1em;vertical-align: middle;fill: currentColor;overflow: hidden;" viewBox="0 0 2048 1024" version="1.1" xmlns="http://www.w3.org/2000/svg"><path d="M1834.666667 355.555556l-164.977778-164.977778-412.444445 415.288889L1422.222222 768l412.444445-412.444444z m19.911111-19.911112l91.022222-91.022222c11.377778-11.377778 11.377778-31.288889 0-42.666666l-122.311111-122.311112c-11.377778-11.377778-31.288889-11.377778-42.666667 0L1689.6 170.666667l164.977778 164.977777zM1237.333333 625.777778l-22.755555 22.755555c-2.844444 2.844444-5.688889 5.688889-5.688889 11.377778L1109.333333 918.755556l258.844445-99.555556c2.844444-2.844444 8.533333-2.844444 11.377778-5.688889l22.755555-22.755555-164.977778-164.977778zM1865.955556 39.822222l122.311111 122.311111c34.133333 34.133333 34.133333 88.177778 0 122.311111l-568.888889 566.044445c-8.533333 8.533333-19.911111 14.222222-31.288889 19.911111l-290.133333 110.933333c-22.755556 8.533333-48.355556-2.844444-56.888889-25.6-2.844444-11.377778-2.844444-19.911111 0-31.288889l110.933333-290.133333c5.688889-11.377778 11.377778-22.755556 19.911111-31.288889L1743.644444 39.822222c34.133333-34.133333 88.177778-34.133333 122.311112 0zM426.666667 796.444444c25.6-5.688889 48.355556-17.066667 108.088889-39.822222h2.844444c122.311111-45.511111 162.133333-51.2 193.422222-31.288889 36.977778 22.755556 39.822222 59.733333 31.288889 133.688889v5.688889c-5.688889 48.355556-5.688889 68.266667 0 73.955556 11.377778 14.222222 153.6-28.444444 159.288889-5.688889 5.688889 22.755556-170.666667 82.488889-204.8 42.666666-19.911111-25.6-22.755556-48.355556-11.377778-116.622222V853.333333c5.688889-51.2 8.533333-68.266667-11.377778-79.644444-19.911111-8.533333-227.555556 73.955556-253.155555 82.488889-48.355556 11.377778-79.644444 5.688889-93.866667-22.755556-14.222222-25.6-2.844444-48.355556 25.6-88.177778 8.533333-11.377778 19.911111-25.6 36.977778-45.511111 5.688889-5.688889 31.288889-39.822222 39.822222-48.355555 14.222222-17.066667 22.755556-28.444444 31.288889-42.666667 34.133333-42.666667 48.355556-79.644444 51.2-99.555555 2.844444-19.911111 2.844444-31.288889-14.222222-39.822223-48.355556-22.755556-193.422222 34.133333-457.955556 153.6-14.222222 5.688889-31.288889-5.688889-39.822222-25.6-8.533333-22.755556 0-48.355556 14.222222-54.044444 284.444444-128 443.733333-164.977778 514.844445-133.688889 48.355556 19.911111 62.577778 62.577778 51.2 110.933333-8.533333 34.133333-31.288889 73.955556-68.266667 122.311111-11.377778 14.222222-19.911111 28.444444-34.133333 42.666667-8.533333 8.533333-36.977778 42.666667-39.822222 48.355556-14.222222 17.066667-25.6 31.288889-34.133334 42.666666-14.222222 8.533333-8.533333 22.755556 2.844445 19.911111z"  /></svg>